HIERARCHY
ROOT Hips
{
	OFFSET	0.00	0.00	0.00
	CHANNELS 6 Xposition Yposition Zposition Zrotation Xrotation Yrotation
	JOINT LeftUpLeg
	{
		OFFSET	 0.126116	-0.065224	 0.014019
		CHANNELS 3 Zrotation Xrotation Yrotation
		JOINT LeftLeg
		{
			OFFSET	 0.000000	 0.569914	 0.000000
			CHANNELS 3 Zrotation Xrotation Yrotation
			JOINT LeftFoot
			{
				OFFSET	 0.000000	 0.544423	 0.000000
				CHANNELS 3 Zrotation Xrotation Yrotation
				JOINT LeftToeBase
				{
					OFFSET	 0.000000	 0.207117	 0.000000
					CHANNELS 3 Zrotation Xrotation Yrotation
					End Site
					{
						OFFSET	 0.000000	 0.207117	 0.000000
					}
				}
			}
		}
	}
	JOINT RightUpLeg
	{
		OFFSET	-0.124023	-0.065224	 0.008373
		CHANNELS 3 Zrotation Xrotation Yrotation
		JOINT RightLeg
		{
			OFFSET	 0.000000	 0.570047	 0.000000
			CHANNELS 3 Zrotation Xrotation Yrotation
			JOINT RightFoot
			{
				OFFSET	 0.000000	 0.544354	 0.000000
				CHANNELS 3 Zrotation Xrotation Yrotation
				JOINT RightToeBase
				{
					OFFSET	 0.000000	 0.207540	 0.000000
					CHANNELS 3 Zrotation Xrotation Yrotation
					End Site
					{
						OFFSET	 0.000000	 0.207540	 0.000000
					}
				}
			}
		}
	}
	JOINT Spine
	{
		OFFSET	 0.000184	 0.117403	 0.007763
		CHANNELS 3 Zrotation Xrotation Yrotation
		JOINT Spine1
		{
			OFFSET	 0.000000	 0.137269	 0.000000
			CHANNELS 3 Zrotation Xrotation Yrotation
			JOINT Spine2
			{
				OFFSET	 0.000000	 0.156879	 0.000000
				CHANNELS 3 Zrotation Xrotation Yrotation
				JOINT LeftShoulder
				{
					OFFSET	 0.080501	 0.160143	 0.002496
					CHANNELS 3 Zrotation Xrotation Yrotation
					JOINT LeftArm
					{
						OFFSET	 0.000000	 0.164363	 0.000000
						CHANNELS 3 Zrotation Xrotation Yrotation
						JOINT LeftForeArm
						{
							OFFSET	 0.000000	 0.364576	 0.000000
							CHANNELS 3 Zrotation Xrotation Yrotation
							JOINT LeftHand
							{
								OFFSET	 0.000000	 0.360812	 0.000000
								CHANNELS 3 Zrotation Xrotation Yrotation
								JOINT LeftHandIndex1
								{
									OFFSET	 0.000000	 0.086006	 0.000000
									CHANNELS 3 Zrotation Xrotation Yrotation
									JOINT LeftHandIndex2
									{
										OFFSET	 0.000000	 0.047237	 0.000000
										CHANNELS 3 Zrotation Xrotation Yrotation
										JOINT LeftHandIndex3
										{
											OFFSET	-0.004284	 0.038165	 0.000551
											CHANNELS 3 Zrotation Xrotation Yrotation
											End Site
											{
												OFFSET	-0.004284	 0.038165	 0.000551
											}
										}
									}
								}
							}
						}
					}
				}
				JOINT Neck
				{
					OFFSET	 0.000000	 0.176489	 0.000000
					CHANNELS 3 Zrotation Xrotation Yrotation
					JOINT Head
					{
						OFFSET	 0.000000	 0.077941	 0.001747
						CHANNELS 3 Zrotation Xrotation Yrotation
						End Site
						{
							OFFSET	 0.000000	 0.077941	 0.001747
						}
					}
				}
				JOINT RightShoulder
				{
					OFFSET	-0.080363	 0.159706	-0.000306
					CHANNELS 3 Zrotation Xrotation Yrotation
					JOINT RightArm
					{
						OFFSET	 0.000000	 0.164196	 0.000000
						CHANNELS 3 Zrotation Xrotation Yrotation
						JOINT RightForeArm
						{
							OFFSET	 0.000000	 0.365611	 0.000000
							CHANNELS 3 Zrotation Xrotation Yrotation
							JOINT RightHand
							{
								OFFSET	 0.000000	 0.360648	 0.000000
								CHANNELS 3 Zrotation Xrotation Yrotation
								JOINT RightHandIndex1
								{
									OFFSET	 0.000000	 0.069977	 0.000000
									CHANNELS 3 Zrotation Xrotation Yrotation
									JOINT RightHandIndex2
									{
										OFFSET	 0.000000	 0.052305	 0.000000
										CHANNELS 3 Zrotation Xrotation Yrotation
										JOINT RightHandIndex3
										{
											OFFSET	 0.009002	 0.042196	 0.000782
											CHANNELS 3 Zrotation Xrotation Yrotation
											End Site
											{
												OFFSET	 0.009002	 0.042196	 0.000782
											}
										}
									}
								}
							}
						}
					}
				}
			}
		}
	}
}
MOTION
Frames:    12
Frame Time: 0.03333334
 0.000540	 1.268995	-0.011897	 0.316381	 2.001568	 177.714600	 175.928800	 4.156383	 12.834190	 3.532950	-17.334910	 2.869596	-3.636693	 71.601800	 6.780992	 1.331492	 28.938720	-2.729976	-175.285300	 4.414627	-11.794920	-5.144755	-16.480120	-7.508722	-3.102608	 70.176870	 2.174284	-1.308986	 28.624700	 2.405078	-1.051190	 3.351122	 0.328300	-0.820633	 1.915191	-0.294367	-0.801416	-0.896439	-1.260377	-113.435200	 5.423731	 92.957500	 2.258468	 49.866290	 40.437680	 24.621370	-1.234997	 0.185663	-17.607630	-6.922410	-13.641360	-6.580301	 5.266122	 0.000000	 0.000000	 0.000000	 0.000000	 0.000000	 0.000000	 0.000000	 5.009339	-0.496121	 0.264022	 1.612514	 2.443535	 2.558811	 114.286400	-4.877992	-88.063130	-58.788780	 17.994090	 42.641990	-93.355000	-2.249234	-2.326337	-24.203900	-13.445900	-29.655390	-0.368842	 10.843310	 0.746226	 11.981250	 9.572608	-2.150969	-8.361890	 3.291368	 0.095207
 0.002537	 1.268947	-0.010451	 0.278812	 2.072620	 177.980700	 175.973100	 4.152405	 13.095980	 3.528488	-17.314360	 3.010802	-3.373369	 71.541810	 6.378454	 1.331492	 28.938720	-2.729976	-175.251000	 4.409620	-11.553450	-5.142904	-16.474510	-7.506651	-3.156416	 70.170730	 2.187389	-1.306656	 28.594170	 2.461306	-1.048766	 3.424164	 0.397558	-0.780052	 2.019254	-0.279997	-0.873384	-0.820039	-1.388574	-113.436000	 5.442976	 92.975970	 1.816434	 50.145810	 40.287470	 24.586940	-1.233380	 0.184948	-16.346770	-7.189590	-13.330530	-6.580301	 5.266122	 0.000000	 0.000000	 0.000000	 0.000000	 0.000000	 0.000000	 0.000000	 5.073444	-0.461179	 0.161122	 2.209786	 2.292985	 2.292958	 114.282900	-4.852931	-88.075870	-55.304330	 19.145050	 33.520950	-99.054220	-2.225035	-2.548982	-22.981050	-11.538920	-29.946090	-0.402609	 11.809060	 0.752863	 11.996330	 10.517630	-2.354772	-8.371887	 3.812653	 0.061870
 0.004856	 1.268867	-0.008990	 0.236022	 2.142991	 178.243900	 176.017200	 4.157478	 13.355800	 3.526508	-17.305200	 3.151350	-3.128487	 71.486430	 5.986634	 1.331492	 28.938720	-2.729976	-175.216000	 4.420641	-11.315850	-5.144681	-16.479880	-7.505148	-3.206202	 70.158620	 2.197748	-1.304318	 28.563980	 2.516906	-1.049131	 3.497391	 0.558954	-0.815957	 2.132389	-0.171996	-0.911104	-0.747372	-1.515820	-113.436700	 5.461981	 92.994200	 1.921071	 50.757290	 39.735260	 23.917100	-1.201783	 0.170685	-14.905780	-7.537536	-12.832090	-6.580301	 5.266122	 0.000000	 0.000000	 0.000000	 0.000000	 0.000000	 0.000000	 0.000000	 5.136910	-0.426731	 0.059307	 2.799357	 2.141757	 2.031775	 114.279400	-4.828152	-88.088500	-52.485100	 19.910880	 23.849700	-104.117400	-2.185080	-2.743933	-21.930320	-10.124700	-31.313160	-0.436251	 12.764510	 0.760027	 12.014670	 11.452530	-2.557295	-8.381483	 4.328290	 0.028963
 0.007282	 1.268765	-0.007552	 0.190420	 2.212070	 178.501300	 176.057500	 4.171668	 13.610260	 3.526291	-17.304190	 3.289420	-2.897035	 71.431300	 5.607274	 1.331492	 28.938720	-2.729976	-175.181600	 4.442703	-11.084220	-5.150253	-16.496680	-7.504356	-3.250622	 70.146410	 2.205538	-1.302002	 28.534480	 2.571239	-1.051234	 3.569818	 0.771364	-0.893821	 2.250403	-0.011271	-0.929565	-0.678022	-1.640600	-113.437500	 5.480609	 93.012080	 2.465577	 51.570430	 38.851800	 22.799330	-1.148745	 0.147768	-13.356790	-7.897283	-12.226070	-6.580301	 5.266122	 0.000000	 0.000000	 0.000000	 0.000000	 0.000000	 0.000000	 0.000000	 5.199007	-0.393168	-0.040253	 3.374480	 1.991872	 1.778185	 114.276000	-4.803950	-88.100800	-50.657530	 20.206500	 14.157630	-107.793900	-2.145372	-2.882870	-21.200320	-9.036624	-33.260410	-0.469387	 13.698560	 0.767617	 12.035930	 12.366420	-2.756253	-8.390584	 4.832344	-0.003143
 0.009678	 1.268643	-0.006142	 0.142825	 2.280604	 178.756600	 176.090800	 4.196222	 13.862980	 3.527581	-17.310130	 3.426765	-2.668357	 71.372230	 5.232117	 1.331492	 28.938720	-2.729976	-175.147600	 4.472931	-10.855250	-5.160559	-16.527810	-7.504495	-3.290566	 70.140380	 2.212348	-1.299677	 28.505250	 2.625046	-1.054459	 3.642320	 1.002217	-0.984264	 2.368933	 0.168543	-0.942703	-0.608291	-1.764507	-113.438300	 5.499010	 93.029750	 3.361619	 52.482080	 37.683660	 21.389930	-1.081209	 0.120360	-11.737960	-8.218943	-11.574670	-6.580301	 5.266122	 0.000000	 0.000000	 0.000000	 0.000000	 0.000000	 0.000000	 0.000000	 5.260573	-0.360029	-0.138907	 3.942996	 1.841325	 1.528734	 114.272600	-4.779951	-88.113020	-49.760870	 20.156080	 4.816941	-109.877300	-2.118935	-2.960352	-21.002450	-8.068272	-35.153000	-0.502469	 14.623750	 0.775715	 12.060280	 13.271570	-2.954381	-8.399324	 5.331631	-0.034891
 0.011876	 1.268510	-0.004784	 0.095339	 2.347781	 179.008300	 176.114400	 4.232194	 14.112550	 3.529973	-17.321170	 3.562678	-2.436938	 71.305660	 4.860346	 1.331492	 28.938720	-2.729976	-175.114300	 4.508449	-10.629900	-5.176048	-16.574600	-7.505713	-3.325231	 70.145700	 2.218571	-1.297354	 28.476430	 2.678091	-1.057814	 3.714447	 1.218381	-1.058713	 2.483033	 0.334085	-0.962993	-0.536261	-1.886931	-113.439000	 5.517189	 93.047180	 4.495439	 53.378330	 36.310840	 19.884370	-1.008284	 0.092934	-10.133110	-8.453961	-10.948820	-6.580301	 5.266122	 0.000000	 0.000000	 0.000000	 0.000000	 0.000000	 0.000000	 0.000000	 5.321339	-0.327454	-0.236224	 4.502434	 1.690888	 1.284448	 114.269400	-4.756304	-88.125030	-49.384200	 19.840080	-3.722115	-110.504700	-2.110469	-2.983501	-21.655120	-7.054177	-36.326250	-0.535361	 15.535940	 0.784277	 12.087540	 14.163920	-3.150865	-8.407680	 5.823961	-0.066148
 0.013745	 1.268369	-0.003485	 0.049336	 2.413868	 179.258800	 176.125600	 4.281117	 14.361050	 3.533294	-17.336440	 3.698324	-2.195203	 71.227670	 4.487038	 1.331492	 28.938720	-2.729976	-175.081700	 4.545881	-10.405700	-5.196843	-16.637330	-7.508127	-3.354739	 70.166740	 2.224880	-1.295014	 28.447770	 2.730840	-1.060320	 3.786669	 1.391196	-1.091767	 2.586624	 0.455713	-1.001996	-0.457713	-2.008917	-113.439800	 5.535244	 93.064510	 5.711074	 54.152890	 34.847390	 18.513410	-0.941348	 0.069543	-8.638688	-8.561584	-10.408960	-6.580301	 5.266122	 0.000000	 0.000000	 0.000000	 0.000000	 0.000000	 0.000000	 0.000000	 5.381835	-0.295155	-0.333056	 5.057722	 1.539352	 1.043221	 114.266100	-4.732760	-88.137010	-48.877880	 19.121120	-11.352170	-110.119600	-2.115764	-2.969368	-23.549180	-5.886615	-36.335490	-0.568358	 16.443030	 0.793372	 12.117900	 15.051190	-3.347479	-8.415728	 6.313637	-0.097193
 0.015164	 1.268223	-0.002218	-0.035169	 2.450298	 179.542000	 176.081000	 4.351550	 14.683200	 3.523880	-17.293120	 3.961587	-1.565508	 71.140240	 3.708635	 1.331492	 28.938720	-2.729976	-175.093500	 4.656057	-10.060400	-5.246974	-16.788400	-7.437952	-3.186918	 70.261150	 2.012568	-1.294186	 28.438220	 2.760050	-1.054185	 3.840115	 1.494046	-1.153144	 2.716801	 0.526458	-1.041845	-0.446966	-2.141811	-113.440100	 5.480699	 93.047700	 7.118917	 54.757290	 33.799800	 17.246080	-0.878945	 0.049453	-7.341864	-9.136675	-10.058970	-6.580301	 5.266122	 0.000000	 0.000000	 0.000000	 0.000000	 0.000000	 0.000000	 0.000000	 5.280861	-0.277451	-0.390737	 5.119503	 1.416548	 0.871749	 114.260200	-4.692491	-88.162030	-46.499870	 22.321700	-15.095000	-109.030600	-2.130046	-2.929004	-17.968830	-5.151382	-33.265870	-0.608194	 17.527030	 0.805008	 12.158510	 16.111370	-3.584193	-8.424224	 6.848273	-0.131044
 0.016393	 1.268055	-0.000998	-0.127395	 2.481536	 179.828700	 176.017400	 4.444173	 15.015980	 3.513726	-17.246220	 4.243887	-0.883238	 71.034080	 2.876176	 1.331492	 28.938720	-2.729976	-175.110400	 4.783257	-9.698375	-5.306535	-16.967550	-7.359019	-2.989834	 70.374370	 1.768554	-1.293601	 28.431760	 2.785319	-1.047854	 3.889780	 1.608425	-1.214004	 2.868536	 0.611499	-1.084515	-0.457027	-2.275099	-113.440400	 5.415205	 93.025660	 9.066917	 55.436940	 32.388450	 15.644280	-0.799460	 0.025999	-5.995992	-9.737584	-9.693140	-6.580301	 5.266122	 0.000000	 0.000000	 0.000000	 0.000000	 0.000000	 0.000000	 0.000000	 5.155399	-0.262073	-0.441755	 5.102996	 1.299458	 0.712472	 114.253900	-4.649928	-88.188900	-42.679340	 25.352390	-17.960400	-107.207600	-2.152355	-2.860893	-12.893050	-4.210703	-28.813490	-0.649225	 18.630170	 0.817739	 12.204780	 17.190120	-3.827247	-8.432452	 7.385539	-0.165020
 0.017463	 1.267874	 0.000176	-0.219774	 2.512385	-179.888100	 175.945000	 4.547236	 15.345190	 3.504114	-17.202000	 4.523999	-0.210028	 70.915020	 2.057192	 1.331492	 28.938720	-2.729976	-175.128000	 4.913677	-9.340947	-5.370333	-17.159100	-7.282868	-2.790891	 70.495820	 1.526618	-1.293019	 28.425360	 2.810316	-1.042066	 3.938502	 1.720768	-1.263729	 3.023807	 0.694400	-1.132043	-0.470523	-2.406638	-113.440800	 5.350430	 93.003880	 11.437960	 56.148210	 30.609810	 13.767320	-0.705534	 0.001355	-4.579404	-10.278510	-9.333404	-6.580301	 5.266122	 0.000000	 0.000000	 0.000000	 0.000000	 0.000000	 0.000000	 0.000000	 5.031298	-0.246749	-0.492193	 5.086228	 1.183570	 0.554856	 114.247800	-4.607805	-88.215490	-38.204560	 27.536150	-20.522860	-104.751900	-2.178910	-2.768123	-9.260530	-2.727406	-23.521540	-0.690355	 19.721800	 0.831248	 12.255580	 18.257410	-4.070111	-8.440287	 7.917083	-0.198600
 0.018377	 1.267688	 0.001302	-0.310049	 2.541618	-179.610500	 175.867300	 4.651354	 15.667520	 3.494859	-17.159240	 4.798810	 0.447647	 70.791840	 1.261188	 1.331492	 28.938720	-2.729976	-175.148500	 5.045239	-8.991241	-5.436514	-17.357320	-7.210082	-2.588761	 70.623020	 1.288192	-1.292447	 28.419100	 2.834756	-1.036238	 3.985646	 1.809946	-1.301981	 3.166362	 0.754524	-1.183213	-0.479801	-2.534940	-113.441100	 5.287091	 92.982560	 14.055680	 56.823120	 28.603960	 11.733200	-0.602895	-0.021883	-3.118781	-10.762310	-9.021652	-6.580301	 5.266122	 0.000000	 0.000000	 0.000000	 0.000000	 0.000000	 0.000000	 0.000000	 4.909965	-0.231660	-0.541478	 5.069407	 1.070201	 0.400740	 114.241800	-4.566626	-88.241490	-33.706210	 29.071080	-22.793340	-101.747100	-2.205914	-2.653119	-6.669848	-0.650757	-17.792360	-0.731123	 20.789280	 0.845361	 12.310200	 19.300890	-4.310065	-8.447653	 8.436840	-0.231406
 0.019092	 1.267518	 0.002298	-0.389604	 2.567585	-179.362300	 175.794700	 4.739350	 15.955260	 3.486258	-17.119470	 5.045580	 1.038688	 70.681290	 0.551230	 1.331492	 28.938720	-2.729976	-175.171100	 5.164618	-8.678420	-5.498322	-17.542040	-7.146078	-2.397096	 70.743800	 1.070624	-1.291932	 28.413500	 2.856648	-1.030301	 4.027392	 1.857194	-1.327214	 3.278122	 0.775765	-1.232580	-0.481288	-2.649554	-113.441500	 5.230336	 92.963460	 16.482190	 57.357070	 26.725050	 9.872443	-0.508334	-0.039955	-1.785208	-11.161850	-8.807981	-6.580301	 5.266122	 0.000000	 0.000000	 0.000000	 0.000000	 0.000000	 0.000000	 0.000000	 4.801288	-0.218055	-0.585600	 5.053977	 0.968625	 0.262645	 114.236400	-4.529729	-88.264760	-29.889670	 30.157450	-24.680630	-98.593490	-2.227778	-2.531072	-4.908249	 1.712571	-12.459700	-0.768131	 21.745440	 0.858783	 12.363390	 20.235370	-4.527234	-8.454003	 8.902424	-0.260775
